<svg width="585" height="218" viewBox="0 0 585 218" fill="none" xmlns="http://www.w3.org/2000/svg">
<path d="M36.5324 163.605C33.087 163.605 29.551 163.197 25.9244 162.381C22.3884 161.565 19.079 160.25 15.9964 158.437C12.9137 156.623 10.3297 154.13 8.24436 150.957C6.15903 147.783 4.75369 143.794 4.02836 138.989H25.7884C26.3324 140.439 27.1484 141.709 28.2364 142.797C29.415 143.794 30.8204 144.565 32.4524 145.109C34.175 145.562 35.8977 145.789 37.6204 145.789C38.799 145.789 39.9324 145.698 41.0204 145.517C42.1084 145.335 43.0604 145.018 43.8764 144.565C44.783 144.111 45.463 143.567 45.9164 142.933C46.3697 142.207 46.5964 141.346 46.5964 140.349C46.5964 138.898 46.0977 137.855 45.1004 137.221C44.1937 136.495 42.879 135.951 41.1564 135.589C39.5244 135.135 37.6204 134.682 35.4444 134.229C31.9084 133.503 28.1004 132.597 24.0204 131.509C20.031 130.421 16.631 128.97 13.8204 127.157C12.4604 126.25 11.2817 125.253 10.2844 124.165C9.28703 122.986 8.47103 121.762 7.83636 120.493C7.29236 119.133 6.83903 117.727 6.47636 116.277C6.20436 114.735 6.06836 113.103 6.06836 111.381C6.06836 107.391 6.92969 103.991 8.65236 101.181C10.4657 98.3699 12.7777 96.1032 15.5884 94.3806C18.4897 92.6579 21.7084 91.4339 25.2444 90.7086C28.7804 89.8926 32.3164 89.4846 35.8524 89.4846C40.839 89.4846 45.463 90.3006 49.7244 91.9326C53.9857 93.4739 57.5217 96.0126 60.3324 99.5486C63.2337 102.994 65.047 107.527 65.7724 113.149H44.9644C44.6924 111.335 43.6497 109.885 41.8364 108.797C40.023 107.709 37.7564 107.165 35.0364 107.165C34.039 107.165 33.0417 107.301 32.0444 107.573C31.047 107.754 30.1404 108.026 29.3244 108.389C28.599 108.661 27.9644 109.114 27.4204 109.749C26.967 110.383 26.7404 111.154 26.7404 112.061C26.7404 112.695 26.9217 113.33 27.2844 113.965C27.7377 114.599 28.3724 115.189 29.1884 115.733C30.095 116.186 31.2284 116.639 32.5884 117.093C35.671 117.727 38.663 118.362 41.5644 118.997C44.4657 119.541 47.231 120.085 49.8604 120.629C52.7617 121.263 55.5724 122.306 58.2924 123.757C61.0124 125.117 63.2337 127.066 64.9564 129.605C66.7697 132.143 67.6764 135.589 67.6764 139.941C67.6764 144.474 66.7244 148.282 64.8204 151.365C63.007 154.447 60.559 156.85 57.4764 158.573C54.3937 160.295 51.039 161.565 47.4124 162.381C43.7857 163.197 40.159 163.605 36.5324 163.605ZM107.752 163.469C99.5011 163.469 93.2904 161.157 89.1197 156.533C84.9491 151.818 82.8637 145.471 82.8637 137.493V110.021H72.5277V90.8446H82.8637V72.2126H104.488V90.8446H126.112V110.021H104.488V132.733C104.488 134.909 104.805 136.767 105.44 138.309C106.074 139.85 107.072 141.074 108.432 141.981C109.882 142.797 111.741 143.205 114.008 143.205C116.274 143.205 118.133 142.887 119.584 142.253C121.034 141.527 122.258 140.757 123.256 139.941L129.376 156.805C127.472 158.437 125.205 159.751 122.576 160.749C120.037 161.746 117.498 162.426 114.96 162.789C112.421 163.242 110.018 163.469 107.752 163.469ZM169.589 163.605C158.8 163.605 150.459 160.885 144.565 155.445C138.763 150.005 135.861 141.799 135.861 130.829V90.8446H157.485V129.197C157.485 132.007 157.848 134.546 158.573 136.813C159.389 138.989 160.704 140.757 162.517 142.117C164.331 143.386 166.688 144.021 169.589 144.021C172.853 144.021 175.301 143.295 176.933 141.845C178.565 140.394 179.608 138.535 180.061 136.269C180.605 133.911 180.877 131.554 180.877 129.197V90.8446H202.365V130.829C202.365 142.343 199.419 150.685 193.525 155.853C187.723 161.021 179.744 163.605 169.589 163.605ZM221.798 162.517V110.021H211.326V90.8446H221.798V84.7246C221.798 79.1939 222.705 74.6606 224.518 71.1246C226.332 67.5886 229.142 65.0046 232.95 63.3726C236.849 61.7406 241.7 60.9246 247.502 60.9246H260.558V80.1006H250.222C248.5 80.1006 247.14 80.3726 246.142 80.9166C245.145 81.3699 244.42 82.1406 243.966 83.2286C243.604 84.2259 243.422 85.4952 243.422 87.0366V90.8446H260.558V110.021H243.422V162.517H221.798ZM274.791 162.517V110.021H264.319V90.8446H274.791V84.7246C274.791 79.1939 275.697 74.6606 277.511 71.1246C279.324 67.5886 282.135 65.0046 285.943 63.3726C289.841 61.7406 294.692 60.9246 300.495 60.9246H313.551V80.1006H303.215C301.492 80.1006 300.132 80.3726 299.135 80.9166C298.137 81.3699 297.412 82.1406 296.959 83.2286C296.596 84.2259 296.415 85.4952 296.415 87.0366V90.8446H313.551V110.021H296.415V162.517H274.791ZM334.855 164.557C331.409 164.557 328.417 163.469 325.879 161.293C323.34 159.117 322.071 155.943 322.071 151.773C322.071 147.511 323.34 144.202 325.879 141.845C328.508 139.487 331.545 138.309 334.991 138.309C338.436 138.309 341.383 139.487 343.831 141.845C346.369 144.111 347.639 147.375 347.639 151.637C347.639 155.898 346.369 159.117 343.831 161.293C341.383 163.469 338.391 164.557 334.855 164.557Z" fill="#F89F3C"/>
<path d="M476 199.833V109M476 109L396.884 63.5833M476 109L555.116 63.5833M435.125 38.7858L516.875 85.565M466.917 197.381C469.678 198.975 472.811 199.815 476 199.815C479.189 199.815 482.322 198.975 485.083 197.381L548.667 161.047C551.426 159.455 553.717 157.164 555.311 154.406C556.906 151.648 557.747 148.519 557.75 145.333V72.6667C557.747 69.4809 556.906 66.352 555.311 63.5939C553.717 60.8358 551.426 58.5454 548.667 56.9525L485.083 20.6192C482.322 19.0247 479.189 18.1853 476 18.1853C472.811 18.1853 469.678 19.0247 466.917 20.6192L403.333 56.9525C400.574 58.5454 398.283 60.8358 396.689 63.5939C395.094 66.352 394.253 69.4809 394.25 72.6667V145.333C394.253 148.519 395.094 151.648 396.689 154.406C398.283 157.164 400.574 159.455 403.333 161.047L466.917 197.381Z" stroke="#F89F3C" stroke-width="19" stroke-linecap="round" stroke-linejoin="round"/>
</svg>
